<?xml version="1.0" standalone="no"?>
<!DOCTYPE svg PUBLIC "-//W3C//DTD SVG 20010904//EN"
 "http://www.w3.org/TR/2001/REC-SVG-20010904/DTD/svg10.dtd">
<svg version="1.0" xmlns="http://www.w3.org/2000/svg"
 width="1080.000000pt" height="1620.000000pt" viewBox="0 0 1080.000000 1620.000000"
 preserveAspectRatio="xMidYMid meet">

<g transform="translate(0.000000,1620.000000) scale(0.100000,-0.100000)"
fill="#000000" stroke="none">
<path d="M6600 9260 c0 -5 5 -10 10 -10 6 0 10 5 10 10 0 6 -4 10 -10 10 -5 0
-10 -4 -10 -10z"/>
<path d="M4780 8995 c0 -8 5 -15 10 -15 6 0 10 7 10 15 0 8 -4 15 -10 15 -5 0
-10 -7 -10 -15z"/>
<path d="M8156 7508 c-3 -18 -8 -54 -11 -79 -3 -25 -8 -58 -11 -72 -2 -16 0
-27 6 -27 6 0 9 4 5 10 -3 5 9 13 27 18 26 7 36 6 46 -7 11 -14 14 -14 22 -1
6 9 10 10 10 3 0 -8 19 -12 59 -10 32 0 65 -3 72 -9 8 -5 28 -11 44 -13 17 -2
32 -6 35 -11 8 -12 47 -30 53 -24 15 16 -14 46 -93 98 -48 32 -105 74 -126 93
-40 35 -92 63 -118 63 -9 0 -17 -13 -20 -32z"/>
<path d="M7165 6760 c3 -5 11 -10 16 -10 6 0 7 5 4 10 -3 6 -11 10 -16 10 -6
0 -7 -4 -4 -10z"/>
<path d="M6650 6740 c0 -5 5 -10 10 -10 6 0 10 5 10 10 0 6 -4 10 -10 10 -5 0
-10 -4 -10 -10z"/>
<path d="M6650 6710 c0 -5 5 -10 10 -10 6 0 10 5 10 10 0 6 -4 10 -10 10 -5 0
-10 -4 -10 -10z"/>
<path d="M6105 6654 c-17 -13 -20 -44 -4 -44 8 0 8 -5 -1 -15 -8 -9 -9 -15 -2
-15 17 0 25 21 14 32 -16 16 -3 38 22 38 11 0 28 5 36 10 11 7 7 9 -17 7 -18
-1 -39 -7 -48 -13z"/>
<path d="M6140 6610 c8 -5 10 -10 4 -10 -6 0 -11 -7 -11 -15 0 -21 24 -19 37
4 15 28 13 31 -17 31 -22 0 -25 -2 -13 -10z"/>
<path d="M6071 6484 c0 -11 3 -14 6 -6 3 7 2 16 -1 19 -3 4 -6 -2 -5 -13z"/>
<path d="M5037 6423 c-10 -16 11 -39 23 -27 8 8 7 14 -4 23 -8 7 -17 8 -19 4z"/>
<path d="M6051 6284 c0 -11 3 -14 6 -6 3 7 2 16 -1 19 -3 4 -6 -2 -5 -13z"/>
<path d="M4741 6266 c-8 -9 -11 -19 -7 -23 9 -9 29 13 24 27 -2 8 -8 7 -17 -4z"/>
<path d="M7540 6075 c0 -14 4 -25 9 -25 12 0 19 21 13 38 -8 21 -22 13 -22
-13z"/>
<path d="M7000 5700 c0 -11 5 -20 10 -20 6 0 10 9 10 20 0 11 -4 20 -10 20 -5
0 -10 -9 -10 -20z"/>
<path d="M7866 5433 c-11 -11 -6 -23 9 -23 8 0 15 4 15 9 0 13 -16 22 -24 14z"/>
<path d="M5970 3234 c0 -17 22 -14 28 4 2 7 -3 12 -12 12 -9 0 -16 -7 -16 -16z"/>
<path d="M5910 3205 c0 -8 5 -15 10 -15 6 0 10 7 10 15 0 8 -4 15 -10 15 -5 0
-10 -7 -10 -15z"/>
<path d="M6328 3090 c-2 -7 -54 -15 -132 -21 -134 -10 -204 -28 -111 -29 61 0
309 28 350 40 26 7 23 8 -20 7 -27 -1 -57 2 -66 7 -10 4 -18 3 -21 -4z"/>
<path d="M5532 3038 c-8 -8 -42 -14 -95 -15 -45 -1 -100 -6 -122 -12 -30 -8
20 -9 194 -6 129 3 237 8 240 11 13 12 -35 35 -59 29 -34 -10 -79 -10 -115 -1
-20 5 -34 3 -43 -6z"/>
<path d="M5910 3040 c-10 -7 6 -10 55 -9 48 0 64 3 50 9 -27 12 -87 12 -105 0z"/>
<path d="M5840 3029 c0 -5 5 -7 10 -4 6 3 10 8 10 11 0 2 -4 4 -10 4 -5 0 -10
-5 -10 -11z"/>
<path d="M5773 3023 c9 -2 23 -2 30 0 6 3 -1 5 -18 5 -16 0 -22 -2 -12 -5z"/>
</g>
</svg>
